<?xml version="1.0" encoding="UTF-8" standalone="no"?>
<!-- Created with Inkscape (http://www.inkscape.org/) -->

<svg
   xmlns:dc="http://purl.org/dc/elements/1.1/"
   xmlns:cc="http://creativecommons.org/ns#"
   xmlns:rdf="http://www.w3.org/1999/02/22-rdf-syntax-ns#"
   xmlns:svg="http://www.w3.org/2000/svg"
   xmlns="http://www.w3.org/2000/svg"
   xmlns:sodipodi="http://sodipodi.sourceforge.net/DTD/sodipodi-0.dtd"
   xmlns:inkscape="http://www.inkscape.org/namespaces/inkscape"
   width="900"
   height="900"
   viewBox="0 0 900 900"
   id="svg2"
   version="1.1"
   inkscape:version="0.91 r13725"
   sodipodi:docname="icon.svg"
   inkscape:export-filename="/home/masanori/Projects/odentools/diagram/designs/icon.png"
   inkscape:export-xdpi="51.200001"
   inkscape:export-ydpi="51.200001">
  <title
     id="title4182">Icon for OdenTools OECU Bus Timetable</title>
  <defs
     id="defs4">
    <clipPath
       clipPathUnits="userSpaceOnUse"
       id="clipPath4505">
      <rect
         style="opacity:1;fill:#646464;fill-opacity:1;stroke:none;stroke-width:4.69999981;stroke-linecap:square;stroke-linejoin:miter;stroke-miterlimit:4;stroke-dasharray:none;stroke-opacity:1"
         id="rect4507"
         width="667.14288"
         height="404.28574"
         x="119.97186"
         y="261.67603"
         ry="20"
         rx="20" />
    </clipPath>
    <clipPath
       clipPathUnits="userSpaceOnUse"
       id="clipPath4505-5">
      <rect
         style="opacity:1;fill:#646464;fill-opacity:1;stroke:none;stroke-width:4.69999981;stroke-linecap:square;stroke-linejoin:miter;stroke-miterlimit:4;stroke-dasharray:none;stroke-opacity:1"
         id="rect4507-2"
         width="667.14288"
         height="404.28574"
         x="119.97186"
         y="261.67603"
         ry="20"
         rx="20" />
    </clipPath>
    <clipPath
       clipPathUnits="userSpaceOnUse"
       id="clipPath4213">
      <rect
         style="display:inline;opacity:1;fill:#dff0d7;fill-opacity:1;stroke:none;stroke-width:4.69999981;stroke-linecap:square;stroke-linejoin:miter;stroke-miterlimit:4;stroke-dasharray:none;stroke-opacity:1"
         id="rect4215"
         width="667.14288"
         height="404.28574"
         x="119.97186"
         y="116.40044"
         ry="20"
         rx="20" />
    </clipPath>
    <clipPath
       clipPathUnits="userSpaceOnUse"
       id="clipPath4213-8">
      <rect
         style="display:inline;opacity:1;fill:#dff0d7;fill-opacity:1;stroke:none;stroke-width:4.69999981;stroke-linecap:square;stroke-linejoin:miter;stroke-miterlimit:4;stroke-dasharray:none;stroke-opacity:1"
         id="rect4215-8"
         width="667.14288"
         height="404.28574"
         x="119.97186"
         y="116.40044"
         ry="20"
         rx="20" />
    </clipPath>
  </defs>
  <sodipodi:namedview
     id="base"
     pagecolor="#ffffff"
     bordercolor="#666666"
     borderopacity="1.0"
     inkscape:pageopacity="0.0"
     inkscape:pageshadow="2"
     inkscape:zoom="0.49497474"
     inkscape:cx="-229.79791"
     inkscape:cy="830.74779"
     inkscape:document-units="px"
     inkscape:current-layer="layer1"
     showgrid="false"
     inkscape:window-width="1278"
     inkscape:window-height="758"
     inkscape:window-x="0"
     inkscape:window-y="21"
     inkscape:window-maximized="1"
     units="px" />
  <metadata
     id="metadata7">
    <rdf:RDF>
      <cc:Work
         rdf:about="">
        <dc:format>image/svg+xml</dc:format>
        <dc:type
           rdf:resource="http://purl.org/dc/dcmitype/StillImage" />
        <dc:title>Icon for OdenTools OECU Bus Timetable</dc:title>
        <cc:license
           rdf:resource="https://opensource.org/licenses/mit-license.php" />
        <dc:date>2016/05/02</dc:date>
        <dc:creator>
          <cc:Agent>
            <dc:title>Masanori Ohgita</dc:title>
          </cc:Agent>
        </dc:creator>
        <dc:rights>
          <cc:Agent>
            <dc:title>OdenTools</dc:title>
          </cc:Agent>
        </dc:rights>
        <dc:contributor>
          <cc:Agent>
            <dc:title>Masanori Ohgita</dc:title>
          </cc:Agent>
        </dc:contributor>
        <dc:language />
        <dc:source>https://github.com/odentools/diagram</dc:source>
      </cc:Work>
    </rdf:RDF>
  </metadata>
  <g
     inkscape:groupmode="layer"
     id="layer3"
     inkscape:label="Background"
     style="display:none"
     transform="translate(0,-7.0866)"
     sodipodi:insensitive="true">
    <rect
       style="opacity:1;fill:#ffffff;fill-opacity:1;stroke:none;stroke-width:4.69999981;stroke-linecap:square;stroke-linejoin:miter;stroke-miterlimit:4;stroke-dasharray:none;stroke-opacity:1"
       id="rect4213"
       width="900"
       height="900"
       x="0"
       y="7.0866036" />
  </g>
  <g
     inkscape:label="Main"
     inkscape:groupmode="layer"
     id="layer1"
     transform="translate(0,-152.36219)"
     style="display:inline">
    <g
       id="g4312"
       transform="matrix(1.132963,0,0,1.132963,-63.847606,-92.695639)">
      <rect
         rx="10"
         ry="10"
         y="756.08209"
         x="119.97186"
         height="222.07259"
         width="91.148651"
         id="rect4147-9-6-9-6-4"
         style="opacity:1;fill:#323232;fill-opacity:1;stroke:none;stroke-width:4.69999981;stroke-linecap:square;stroke-linejoin:miter;stroke-miterlimit:4;stroke-dasharray:none;stroke-opacity:1" />
      <rect
         rx="10"
         ry="10"
         y="756.08209"
         x="695.96606"
         height="222.07259"
         width="91.148651"
         id="rect4147-9-6-9-6-4-4"
         style="opacity:1;fill:#323232;fill-opacity:1;stroke:none;stroke-width:4.69999981;stroke-linecap:square;stroke-linejoin:miter;stroke-miterlimit:4;stroke-dasharray:none;stroke-opacity:1" />
      <rect
         rx="20"
         ry="20"
         y="248.81889"
         x="103.5433"
         height="700"
         width="700"
         id="rect4147"
         style="opacity:1;fill:#86c262;fill-opacity:1;stroke:none;stroke-width:4.69999981;stroke-linecap:square;stroke-linejoin:miter;stroke-miterlimit:4;stroke-dasharray:none;stroke-opacity:1" />
      <rect
         rx="10.464068"
         ry="10"
         y="724.68726"
         x="103.543"
         height="64.488785"
         width="700"
         id="rect4147-9-6-4"
         style="opacity:1;fill:#969696;fill-opacity:1;stroke:none;stroke-width:4.69999981;stroke-linecap:square;stroke-linejoin:miter;stroke-miterlimit:4;stroke-dasharray:none;stroke-opacity:1" />
      <rect
         rx="5"
         ry="5"
         y="734.78876"
         x="114.97186"
         height="44.285736"
         width="204.28574"
         id="rect4147-9-6"
         style="opacity:1;fill:#fafafa;fill-opacity:1;stroke:none;stroke-width:4.69999981;stroke-linecap:square;stroke-linejoin:miter;stroke-miterlimit:4;stroke-dasharray:none;stroke-opacity:1" />
      <rect
         rx="5"
         ry="5"
         y="734.78876"
         x="587.82898"
         height="44.285736"
         width="204.28574"
         id="rect4147-9-6-9"
         style="opacity:1;fill:#fafafa;fill-opacity:1;stroke:none;stroke-width:4.69999981;stroke-linecap:square;stroke-linejoin:miter;stroke-miterlimit:4;stroke-dasharray:none;stroke-opacity:1" />
      <rect
         rx="5"
         ry="5"
         y="885.58466"
         x="376.65427"
         height="62.468483"
         width="153.77811"
         id="rect4147-9-6-9-6"
         style="opacity:1;fill:#1f301e;fill-opacity:1;stroke:none;stroke-width:4.69999981;stroke-linecap:square;stroke-linejoin:miter;stroke-miterlimit:4;stroke-dasharray:none;stroke-opacity:1" />
      <rect
         rx="3"
         ry="3"
         y="734.78876"
         x="336.40045"
         height="44.285736"
         width="234.28574"
         id="rect4147-9-6-3"
         style="opacity:1;fill:#e1e1e1;fill-opacity:1;stroke:none;stroke-width:4.69999981;stroke-linecap:square;stroke-linejoin:miter;stroke-miterlimit:4;stroke-dasharray:none;stroke-opacity:1" />
      <rect
         rx="0.30243796"
         ry="5"
         y="734.78876"
         x="114.97186"
         height="44.285736"
         width="12.356752"
         id="rect4147-9-6-0"
         style="opacity:1;fill:#ffe766;fill-opacity:1;stroke:none;stroke-width:4.69999981;stroke-linecap:square;stroke-linejoin:miter;stroke-miterlimit:4;stroke-dasharray:none;stroke-opacity:1" />
      <rect
         rx="0.30243796"
         ry="5"
         y="734.78876"
         x="779.75793"
         height="44.285736"
         width="12.356752"
         id="rect4147-9-6-0-8"
         style="opacity:1;fill:#ffe766;fill-opacity:1;stroke:none;stroke-width:4.69999981;stroke-linecap:square;stroke-linejoin:miter;stroke-miterlimit:4;stroke-dasharray:none;stroke-opacity:1" />
      <text
         sodipodi:linespacing="125%"
         id="text4351"
         y="933.2439"
         x="403.09177"
         style="font-style:normal;font-variant:normal;font-weight:500;font-stretch:normal;font-size:16px;line-height:125%;font-family:'M+ 2p';-inkscape-font-specification:'M+ 2p Medium';text-align:start;letter-spacing:0px;word-spacing:0px;writing-mode:lr-tb;text-anchor:start;fill:#000000;fill-opacity:1;stroke:none;stroke-width:1px;stroke-linecap:butt;stroke-linejoin:miter;stroke-opacity:1"
         xml:space="preserve"><tspan
           style="font-size:40px;fill:#ffffff"
           y="933.2439"
           x="403.09177"
           id="tspan4353"
           sodipodi:role="line" /></text>
      <rect
         rx="20"
         ry="20"
         y="261.67603"
         x="119.97186"
         height="404.28574"
         width="667.14288"
         id="rect4147-9-2"
         style="display:inline;opacity:1;fill:#dff0d7;fill-opacity:1;stroke:none;stroke-width:4.69999981;stroke-linecap:square;stroke-linejoin:miter;stroke-miterlimit:4;stroke-dasharray:none;stroke-opacity:1" />
      <g
         style="font-style:normal;font-variant:normal;font-weight:500;font-stretch:normal;font-size:16px;line-height:125%;font-family:'M+ 2p';-inkscape-font-specification:'M+ 2p Medium';text-align:start;letter-spacing:0px;word-spacing:0px;writing-mode:lr-tb;text-anchor:start;display:inline;fill:#505050;fill-opacity:1;stroke:none;stroke-width:1px;stroke-linecap:butt;stroke-linejoin:miter;stroke-opacity:1"
         id="text4351-2">
        <path
           d="m 184.61732,463.81892 q 0,-39.15 13.725,-60.3 13.95,-21.15 38.475,-21.15 24.525,0 38.25,21.15 13.95,21.15 13.95,60.3 0,39.15 -13.95,60.3 -13.725,21.15 -38.25,21.15 -24.525,0 -38.475,-21.15 -13.725,-21.15 -13.725,-60.3 z m 82.35,0 q 0,-12.825 -1.575,-24.3 -1.35,-11.475 -4.95,-20.025 -3.375,-8.55 -9.225,-13.5 -5.85,-5.175 -14.4,-5.175 -8.55,0 -14.4,5.175 -5.85,4.95 -9.45,13.5 -3.375,8.55 -4.95,20.025 -1.35,11.475 -1.35,24.3 0,12.825 1.35,24.3 1.575,11.475 4.95,20.025 3.6,8.55 9.45,13.725 5.85,4.95 14.4,4.95 8.55,0 14.4,-4.95 5.85,-5.175 9.225,-13.725 3.6,-8.55 4.95,-20.025 1.575,-11.475 1.575,-24.3 z"
           style="font-style:normal;font-variant:normal;font-weight:normal;font-stretch:normal;font-size:225px;font-family:Ubuntu;-inkscape-font-specification:Ubuntu;fill:#505050;fill-opacity:1"
           id="path4164" />
        <path
           d="m 311.61928,463.81892 q 0,-39.15 13.725,-60.3 13.95,-21.15 38.475,-21.15 24.525,0 38.25,21.15 13.95,21.15 13.95,60.3 0,39.15 -13.95,60.3 -13.725,21.15 -38.25,21.15 -24.525,0 -38.475,-21.15 -13.725,-21.15 -13.725,-60.3 z m 82.35,0 q 0,-12.825 -1.575,-24.3 -1.35,-11.475 -4.95,-20.025 -3.375,-8.55 -9.225,-13.5 -5.85,-5.175 -14.4,-5.175 -8.55,0 -14.4,5.175 -5.85,4.95 -9.45,13.5 -3.375,8.55 -4.95,20.025 -1.35,11.475 -1.35,24.3 0,12.825 1.35,24.3 1.575,11.475 4.95,20.025 3.6,8.55 9.45,13.725 5.85,4.95 14.4,4.95 8.55,0 14.4,-4.95 5.85,-5.175 9.225,-13.725 3.6,-8.55 4.95,-20.025 1.575,-11.475 1.575,-24.3 z"
           style="font-style:normal;font-variant:normal;font-weight:normal;font-stretch:normal;font-size:225px;font-family:Ubuntu;-inkscape-font-specification:Ubuntu;fill:#505050;fill-opacity:1"
           id="path4166" />
        <path
           d="m 470.12123,529.74392 q 0,6.075 -4.05,10.575 -4.05,4.5 -11.025,4.5 -6.975,0 -11.025,-4.5 -4.05,-4.5 -4.05,-10.575 0,-6.075 4.05,-10.575 4.05,-4.5 11.025,-4.5 6.975,0 11.025,4.5 4.05,4.5 4.05,10.575 z m 0,-89.775 q 0,6.075 -4.05,10.575 -4.05,4.5 -11.025,4.5 -6.975,0 -11.025,-4.5 -4.05,-4.5 -4.05,-10.575 0,-6.075 4.05,-10.575 4.05,-4.5 11.025,-4.5 6.975,0 11.025,4.5 4.05,4.5 4.05,10.575 z"
           style="font-style:normal;font-variant:normal;font-weight:normal;font-stretch:normal;font-size:225px;font-family:Ubuntu;-inkscape-font-specification:Ubuntu;fill:#505050;fill-opacity:1"
           id="path4168" />
        <path
           d="m 493.99232,463.81892 q 0,-39.15 13.725,-60.3 13.95,-21.15 38.475,-21.15 24.525,0 38.25,21.15 13.95,21.15 13.95,60.3 0,39.15 -13.95,60.3 -13.725,21.15 -38.25,21.15 -24.525,0 -38.475,-21.15 -13.725,-21.15 -13.725,-60.3 z m 82.35,0 q 0,-12.825 -1.575,-24.3 -1.35,-11.475 -4.95,-20.025 -3.375,-8.55 -9.225,-13.5 -5.85,-5.175 -14.4,-5.175 -8.55,0 -14.4,5.175 -5.85,4.95 -9.45,13.5 -3.375,8.55 -4.95,20.025 -1.35,11.475 -1.35,24.3 0,12.825 1.35,24.3 1.575,11.475 4.95,20.025 3.6,8.55 9.45,13.725 5.85,4.95 14.4,4.95 8.55,0 14.4,-4.95 5.85,-5.175 9.225,-13.725 3.6,-8.55 4.95,-20.025 1.575,-11.475 1.575,-24.3 z"
           style="font-style:normal;font-variant:normal;font-weight:normal;font-stretch:normal;font-size:225px;font-family:Ubuntu;-inkscape-font-specification:Ubuntu;fill:#505050;fill-opacity:1"
           id="path4170" />
      </g>
      <g
         transform="translate(2,145.2756)"
         clip-path="url(#clipPath4213-8)"
         style="font-style:normal;font-variant:normal;font-weight:500;font-stretch:normal;font-size:16px;line-height:125%;font-family:'M+ 2p';-inkscape-font-specification:'M+ 2p Medium';text-align:start;letter-spacing:0px;word-spacing:0px;writing-mode:lr-tb;text-anchor:start;display:inline;fill:#888888;fill-opacity:1;stroke:none;stroke-width:1px;stroke-linecap:butt;stroke-linejoin:miter;stroke-opacity:1"
         id="text4351-2-5-8">
        <path
           d="m 623.79944,119.60199 q 0,-39.150003 13.725,-60.300003 13.95,-21.15 38.475,-21.15 24.525,0 38.25,21.15 13.95,21.15 13.95,60.300003 0,39.15 -13.95,60.3 -13.725,21.15 -38.25,21.15 -24.525,0 -38.475,-21.15 -13.725,-21.15 -13.725,-60.3 z m 82.35,0 q 0,-12.825 -1.575,-24.300003 -1.35,-11.475 -4.95,-20.025 -3.375,-8.55 -9.225,-13.5 -5.85,-5.175 -14.4,-5.175 -8.55,0 -14.4,5.175 -5.85,4.95 -9.45,13.5 -3.375,8.55 -4.95,20.025 -1.35,11.475003 -1.35,24.300003 0,12.825 1.35,24.3 1.575,11.475 4.95,20.025 3.6,8.55 9.45,13.725 5.85,4.95 14.4,4.95 8.55,0 14.4,-4.95 5.85,-5.175 9.225,-13.725 3.6,-8.55 4.95,-20.025 1.575,-11.475 1.575,-24.3 z"
           style="font-style:normal;font-variant:normal;font-weight:normal;font-stretch:normal;font-size:225px;font-family:Ubuntu;-inkscape-font-specification:Ubuntu;fill:#888888;fill-opacity:1"
           id="path4173" />
      </g>
      <g
         style="font-style:normal;font-variant:normal;font-weight:500;font-stretch:normal;font-size:16px;line-height:125%;font-family:'M+ 2p';-inkscape-font-specification:'M+ 2p Medium';text-align:start;letter-spacing:0px;word-spacing:0px;writing-mode:lr-tb;text-anchor:start;display:inline;fill:#505050;fill-opacity:1;stroke:none;stroke-width:1px;stroke-linecap:butt;stroke-linejoin:miter;stroke-opacity:1"
         id="text4351-2-5-8-1">
        <path
           d="m 633.47444,439.20258 q 12.825,-4.95 24.975,-12.6 12.15,-7.875 22.275,-19.575 l 14.85,0 0,155.925 -20.925,0 0,-126.9 q -2.7,2.475 -6.75,5.175 -3.825,2.7 -8.55,5.175 -4.5,2.475 -9.675,4.725 -4.95,2.25 -9.675,3.825 l -6.525,-15.75 z"
           style="font-style:normal;font-variant:normal;font-weight:normal;font-stretch:normal;font-size:225px;font-family:Ubuntu;-inkscape-font-specification:Ubuntu;fill:#505050;fill-opacity:1"
           id="path4176" />
      </g>
    </g>
  </g>
</svg>
